<svg width="1000" height="500" viewBox="0 0 687 197" fill="none" xmlns="http://www.w3.org/2000/svg">
<rect x="33.5" y="31.5" width="617" height="132" fill="white" stroke="#10172A"/>
<rect x="40" y="40" width="279" height="116" fill="#10172A"/>
<path d="M145.182 69.8182V128H138.364L106.659 82.3182H106.091V128H99.0455V69.8182H105.864L137.682 115.614H138.25V69.8182H145.182ZM167.28 128V69.8182H202.166V76.0682H174.325V95.7273H199.553V101.977H174.325V128H167.28ZM219.051 76.0682V69.8182H262.688V76.0682H244.392V128H237.347V76.0682H219.051Z" fill="white"/>
<path d="M344.045 127V68.8182H378.932V75.0682H351.091V94.7273H376.318V100.977H351.091V127H344.045ZM448.089 97.9091C448.089 104.045 446.982 109.348 444.766 113.818C442.55 118.288 439.51 121.735 435.646 124.159C431.783 126.583 427.37 127.795 422.408 127.795C417.446 127.795 413.033 126.583 409.169 124.159C405.305 121.735 402.266 118.288 400.05 113.818C397.834 109.348 396.726 104.045 396.726 97.9091C396.726 91.7727 397.834 86.4697 400.05 82C402.266 77.5303 405.305 74.0833 409.169 71.6591C413.033 69.2348 417.446 68.0227 422.408 68.0227C427.37 68.0227 431.783 69.2348 435.646 71.6591C439.51 74.0833 442.55 77.5303 444.766 82C446.982 86.4697 448.089 91.7727 448.089 97.9091ZM441.271 97.9091C441.271 92.8712 440.429 88.6193 438.743 85.1534C437.076 81.6875 434.813 79.0644 431.953 77.2841C429.112 75.5038 425.93 74.6136 422.408 74.6136C418.885 74.6136 415.694 75.5038 412.834 77.2841C409.993 79.0644 407.73 81.6875 406.044 85.1534C404.377 88.6193 403.544 92.8712 403.544 97.9091C403.544 102.947 404.377 107.199 406.044 110.665C407.73 114.131 409.993 116.754 412.834 118.534C415.694 120.314 418.885 121.205 422.408 121.205C425.93 121.205 429.112 120.314 431.953 118.534C434.813 116.754 437.076 114.131 438.743 110.665C440.429 107.199 441.271 102.947 441.271 97.9091ZM467.936 127V68.8182H487.595C492.141 68.8182 495.872 69.5947 498.788 71.1477C501.705 72.6818 503.864 74.7936 505.266 77.483C506.667 80.1723 507.368 83.2311 507.368 86.6591C507.368 90.0871 506.667 93.1269 505.266 95.7784C503.864 98.4299 501.714 100.513 498.817 102.028C495.919 103.525 492.216 104.273 487.709 104.273H471.8V97.9091H487.482C490.588 97.9091 493.088 97.4545 494.982 96.5455C496.894 95.6364 498.277 94.3485 499.129 92.6818C500 90.9962 500.436 88.9886 500.436 86.6591C500.436 84.3295 500 82.2936 499.129 80.5511C498.258 78.8087 496.866 77.464 494.953 76.517C493.04 75.5511 490.512 75.0682 487.368 75.0682H474.982V127H467.936ZM495.322 100.864L509.641 127H501.459L487.368 100.864H495.322ZM566.881 87C566.256 85.0871 565.432 83.3731 564.409 81.858C563.405 80.3239 562.203 79.017 560.801 77.9375C559.419 76.858 557.847 76.0341 556.085 75.4659C554.324 74.8977 552.392 74.6136 550.29 74.6136C546.843 74.6136 543.708 75.5038 540.886 77.2841C538.064 79.0644 535.82 81.6875 534.153 85.1534C532.487 88.6193 531.653 92.8712 531.653 97.9091C531.653 102.947 532.496 107.199 534.182 110.665C535.867 114.131 538.15 116.754 541.028 118.534C543.907 120.314 547.146 121.205 550.744 121.205C554.078 121.205 557.013 120.494 559.551 119.074C562.108 117.634 564.097 115.608 565.517 112.994C566.956 110.362 567.676 107.265 567.676 103.705L569.835 104.159H552.335V97.9091H574.494V104.159C574.494 108.951 573.472 113.117 571.426 116.659C569.4 120.201 566.597 122.947 563.017 124.898C559.456 126.83 555.366 127.795 550.744 127.795C545.593 127.795 541.066 126.583 537.165 124.159C533.282 121.735 530.252 118.288 528.074 113.818C525.915 109.348 524.835 104.045 524.835 97.9091C524.835 93.3068 525.451 89.1686 526.682 85.4943C527.932 81.8011 529.693 78.6572 531.966 76.0625C534.239 73.4678 536.928 71.4792 540.034 70.0966C543.14 68.714 546.559 68.0227 550.29 68.0227C553.358 68.0227 556.218 68.4867 558.869 69.4148C561.54 70.3239 563.917 71.6212 566 73.3068C568.102 74.9735 569.854 76.9716 571.256 79.3011C572.657 81.6117 573.623 84.178 574.153 87H566.881ZM594.561 127V68.8182H629.675V75.0682H601.607V94.7273H627.857V100.977H601.607V120.75H630.129V127H594.561Z" fill="#10172A"/>
</svg>
